HIERARCHY
ROOT Hips
{
	OFFSET -3.958830 18.904000 13.208200
	CHANNELS 6 Xposition Yposition Zposition Zrotation Yrotation Xrotation 
	JOINT LHipJoint
	{
		OFFSET 0.000000 0.000000 0.000000
		CHANNELS 3 Zrotation Yrotation Xrotation
		JOINT LeftUpLeg
		{
			OFFSET 1.800000 -1.400000 0.085000
			CHANNELS 3 Zrotation Yrotation Xrotation
			JOINT LeftLeg
			{
				OFFSET 2.215000 -6.000000 0.000000
				CHANNELS 3 Zrotation Yrotation Xrotation
				JOINT LeftFoot
				{
					OFFSET 2.500000 -6.900000 0.000000
					CHANNELS 3 Zrotation Yrotation Xrotation
					JOINT LeftToeBase
					{
						OFFSET 0.200000 -0.500000 1.950000
						CHANNELS 3 Zrotation Yrotation Xrotation
						End Site
						{
							OFFSET 0.000000 0.000000 0.000000
						}
					}
				}
			}
		}
	}
	JOINT RHipJoint
	{
		OFFSET 0.000000 0.000000 0.000000
		CHANNELS 3 Zrotation Yrotation Xrotation
		JOINT RightUpLeg
		{
			OFFSET -1.800000 -1.400000 0.085000
			CHANNELS 3 Zrotation Yrotation Xrotation
			JOINT RightLeg
			{
				OFFSET -2.215000 -6.000000 0.000000
				CHANNELS 3 Zrotation Yrotation Xrotation
				JOINT RightFoot
				{
					OFFSET -2.500000 -6.900000 0.000000
					CHANNELS 3 Zrotation Yrotation Xrotation
					JOINT RightToeBase
					{
						OFFSET -0.200000 -0.500000 1.950000
						CHANNELS 3 Zrotation Yrotation Xrotation
						End Site
						{
							OFFSET 0.000000 0.000000 0.000000
						}
					}
				}
			}
		}
	}
	JOINT LowerBack
	{
		OFFSET 0.000000 0.000000 0.000000
		CHANNELS 3 Zrotation Yrotation Xrotation
		JOINT Spine
		{
			OFFSET -0.087000 1.940000 -0.288900
			CHANNELS 3 Zrotation Yrotation Xrotation
			JOINT Spine1
			{
				OFFSET 0.000000 1.950000 0.060000
				CHANNELS 3 Zrotation Yrotation Xrotation
				JOINT Neck
				{
					OFFSET 0.000000 0.000000 0.000000
					CHANNELS 3 Zrotation Yrotation Xrotation
					JOINT Neck1
					{
						OFFSET 0.000000 1.600000 0.340000
						CHANNELS 3 Zrotation Yrotation Xrotation
						JOINT Head
						{
							OFFSET 0.000000 1.667000 -0.240000
							CHANNELS 3 Zrotation Yrotation Xrotation
							End Site
							{
								OFFSET 0.000000 0.000000 0.000000
							}
						}
					}
				}
				JOINT LeftShoulder
				{
					OFFSET 0.000000 0.000000 0.000000
					CHANNELS 3 Zrotation Yrotation Xrotation
					JOINT LeftArm
					{
						OFFSET 2.700000 1.550000 -0.730000
						CHANNELS 3 Zrotation Yrotation Xrotation
						JOINT LeftForeArm
						{
							OFFSET 5.450000 0.000000 0.000000
							CHANNELS 3 Zrotation Yrotation Xrotation
							JOINT LeftHand
							{
								OFFSET 3.450000 0.000000 0.000000
								CHANNELS 3 Zrotation Yrotation Xrotation
								JOINT LeftHandIndex1
								{
									OFFSET 0.750000 0.000000 0.000000
									CHANNELS 3 Zrotation Yrotation Xrotation
									End Site
									{
										OFFSET 0.000000 0.000000 0.000000
									}
								}
							}
						}
					}
				}
				JOINT RightShoulder
				{
					OFFSET 0.000000 0.000000 0.000000
					CHANNELS 3 Zrotation Yrotation Xrotation
					JOINT RightArm
					{
						OFFSET -2.700000 1.550000 -0.730000
						CHANNELS 3 Zrotation Yrotation Xrotation
						JOINT RightForeArm
						{
							OFFSET -5.450000 0.000000 0.000000
							CHANNELS 3 Zrotation Yrotation Xrotation
							JOINT RightHand
							{
								OFFSET -3.450000 0.000000 0.000000
								CHANNELS 3 Zrotation Yrotation Xrotation
								JOINT RightHandIndex1
								{
									OFFSET -0.750000 0.000000 0.000000
									CHANNELS 3 Zrotation Yrotation Xrotation
									End Site
									{
										OFFSET 0.000000 0.000000 0.000000
									}
								}
							}
						}
					}
				}
			}
		}
	}
}
MOTION
Frames: 7
Frame Time: 0.016667
-0.526140 17.365160 -3.636630 -8.667519 -21.983865 12.473086 -15.955910 10.827674 6.425562 29.214154 -2.727978 -32.471266 -42.266458 13.680393 11.569387 0.308893 9.330139 1.231210 0.840830 0.462710 0.712910 18.028933 -8.364952 2.223919 -9.824578 5.345911 -29.658103 10.121909 -6.164506 20.556050 -0.264635 -3.180817 3.285098 0.310080 0.166540 0.330780 -2.425963 -3.281394 -8.727766 2.131972 -2.068160 14.077142 3.297263 -2.337863 7.573722 0.659124 -2.270840 -6.022095 -6.023863 9.640121 33.825008 -4.554030 9.623900 -14.784430 -18.507148 0.381302 0.255100 -43.700618 3.230542 -8.189782 -57.223847 -14.562057 1.847339 -3.658216 3.302636 0.716560 0.152560 0.098520 0.297960 17.866445 1.347728 2.392778 42.770182 -4.680469 -12.133619 68.360781 45.521110 21.064686 1.874940 -1.977609 -0.187430 0.215770 -0.243620 -0.327540 
-0.505510 17.327870 -3.617570 -8.639609 -22.552639 12.705843 -16.018363 10.767143 6.480367 29.517075 -2.792525 -32.547022 -43.262631 13.394590 10.628232 0.327896 9.367037 1.238511 0.842210 0.453230 0.714350 17.990946 -8.212042 2.230485 -11.485076 5.211767 -29.988660 11.838847 -6.671307 20.329548 -0.281466 -3.382783 3.210845 0.313390 0.189340 0.334930 -2.320770 -3.478578 -8.731707 1.778483 -2.147239 13.188489 4.700470 -2.695372 7.788958 0.372719 -2.627804 -6.007914 -6.812381 9.936045 33.732252 -4.768230 9.598570 -14.091070 -17.818122 0.722668 0.320817 -45.515013 2.958655 -8.093000 -57.151355 -13.662023 1.417110 -3.678620 3.302252 0.707340 0.171150 0.081640 0.306970 17.825883 1.356504 2.370614 40.683085 -4.720414 -11.607076 69.970209 45.743450 22.046780 1.859249 -2.002847 -0.196330 0.223530 -0.243660 -0.327230 
-0.483320 17.299180 -3.603430 -8.503503 -22.897369 12.674001 -16.065306 10.820388 6.466016 29.309665 -2.978517 -32.632810 -43.414122 13.405834 10.685035 0.364093 9.358212 1.238618 0.846770 0.469270 0.690440 17.945155 -8.118505 2.246469 -12.732092 5.021569 -30.128880 12.948694 -7.047010 20.280952 -0.304215 -3.547422 3.140282 0.310940 0.196210 0.361120 -2.192453 -3.729613 -8.733653 1.242269 -2.246595 12.871060 6.189455 -3.014554 7.625094 0.060588 -3.031742 -6.007831 -7.724894 10.255301 33.738242 -4.577090 9.407460 -13.657420 -17.322136 1.067954 0.353115 -47.294462 2.474953 -7.863602 -56.661816 -12.987368 1.160881 -3.685220 3.341771 0.680710 0.177710 0.086150 0.319750 18.047363 1.436584 2.363647 38.666275 -4.692671 -11.096101 71.301442 46.516564 23.324615 1.864403 -2.036240 -0.163560 0.200210 -0.243880 -0.300620 
-0.456930 17.279190 -3.594060 -8.328200 -23.271945 12.478001 -16.096980 10.960469 6.401971 28.715723 -3.232780 -32.665171 -42.990109 13.694907 11.508551 0.380600 9.347816 1.241402 0.840590 0.473040 0.662420 17.896527 -8.084141 2.264080 -13.435387 4.849312 -30.212783 13.330784 -7.269422 20.550997 -0.308916 -3.650298 3.105510 0.306880 0.204500 0.362420 -2.057095 -3.996915 -8.732334 0.660570 -2.253043 13.018587 7.643322 -3.138730 7.161333 -0.231896 -3.492685 -6.012494 -8.789011 10.429133 33.752743 -4.295240 9.030080 -13.186860 -17.087152 1.432479 0.282193 -48.630473 1.972210 -7.540205 -56.478386 -12.319221 0.972156 -3.682869 3.361673 0.661980 0.178620 0.079840 0.328380 18.483182 1.568925 2.463102 36.545661 -5.085266 -10.726064 72.963809 47.186211 24.658187 1.868315 -2.058962 -0.150020 0.192810 -0.241930 -0.280870 
-0.430420 17.270970 -3.586770 -7.993169 -23.456568 12.224015 -16.108193 11.143468 6.290396 27.645944 -3.604576 -32.820974 -41.979780 14.080794 12.874974 0.377071 9.317564 1.258366 0.824500 0.455220 0.640130 17.854568 -8.118426 2.272932 -13.716119 4.656625 -30.204753 13.070622 -7.257338 20.619474 -0.296327 -3.653723 3.112509 0.291440 0.221770 0.367300 -1.940282 -4.201844 -8.700551 0.053709 -2.133370 13.179490 8.771526 -3.092339 6.714435 -0.375463 -3.689857 -5.996421 -9.332881 10.354087 33.880831 -4.332450 8.765410 -12.576580 -16.945413 1.650023 0.165336 -49.599371 1.282478 -7.109190 -56.307095 -11.766002 0.865695 -3.692266 3.370479 0.649120 0.188760 0.068460 0.334180 18.713107 1.629100 2.572485 35.112950 -5.419039 -10.470273 73.930622 47.401804 25.357187 1.867045 -2.072212 -0.145920 0.188820 -0.235300 -0.269200 
-0.401440 17.278070 -3.584840 -7.687734 -23.506585 11.837964 -16.095881 11.377140 6.148020 26.252064 -4.063093 -33.023880 -40.250457 14.491324 14.787774 0.353690 9.252128 1.289407 0.803470 0.428940 0.623510 17.821159 -8.218658 2.269780 -13.463765 4.458504 -29.948331 12.267227 -7.014428 20.456558 -0.274401 -3.540332 3.168738 0.269870 0.235190 0.361090 -1.851211 -4.371142 -8.657171 -0.360118 -1.938787 13.633619 9.587755 -2.896739 6.327783 -0.430033 -3.838325 -6.071046 -9.830186 10.100044 34.221342 -4.349030 8.402230 -12.330660 -16.788016 1.716065 0.008813 -50.407958 0.406894 -6.702573 -56.062481 -11.372278 0.824109 -3.691876 3.354821 0.652520 0.187560 0.064700 0.339230 18.711120 1.764366 2.868173 34.589289 -6.128420 -10.651194 74.278034 47.886961 25.776460 1.869994 -2.060863 -0.151770 0.200730 -0.229260 -0.262340 
-0.371110 17.300710 -3.588130 -7.299958 -23.481685 11.293454 -16.071075 11.669931 5.974391 24.522265 -4.570798 -33.154334 -37.813295 14.856805 17.171292 0.297293 9.150224 1.320036 0.772680 0.381350 0.608960 17.786408 -8.365682 2.260910 -12.857248 4.253833 -29.512924 10.978344 -6.576551 20.070808 -0.239715 -3.334246 3.255427 0.237690 0.234130 0.350420 -1.759985 -4.545851 -8.607881 -0.835326 -1.659277 14.369977 10.271742 -2.581237 5.864402 -0.415681 -3.984492 -6.247381 -10.398100 9.852938 34.944038 -4.351240 8.072980 -12.322840 -16.487804 1.702987 -0.117174 -51.289687 -0.472943 -6.366514 -55.751986 -11.010610 0.757496 -3.682325 3.330662 0.678740 0.173110 0.063160 0.328830 18.428477 1.991649 3.253613 35.058719 -6.789791 -11.127151 73.069285 48.059783 25.203138 1.873033 -2.024642 -0.167340 0.207050 -0.211470 -0.270270 
